<svg width="16" height="16" viewBox="0 0 16 16" fill="none" xmlns="http://www.w3.org/2000/svg">
<path fill-rule="evenodd" clip-rule="evenodd" d="M8.98694 6.99606C11.9559 9.96503 13.9171 12.8175 13.3674 13.3672L12.9554 12.9553L12.9642 12.9472C13.472 12.4394 11.6649 9.809 8.92795 7.07204C6.19098 4.33507 3.56058 2.52798 3.05277 3.03579L3.04451 3.04445L2.61576 2.61565C3.1655 2.06591 6.01797 4.02709 8.98694 6.99606ZM9.25694 6.74299C12.9811 10.4671 15.4411 14.045 14.7516 14.7345L14.743 14.7429L13.6493 13.6491L13.6581 13.6411C14.2358 13.0634 12.1747 10.0656 9.05449 6.94544C5.93429 3.82524 2.93656 1.76413 2.35887 2.34182L2.35059 2.35046L1.25732 1.25717L1.26539 1.24834C1.95489 0.558841 5.53283 3.01888 9.25694 6.74299Z" fill="#B87D43"/>
<circle cx="7.99891" cy="7.61592" r="4.99629" fill="#FCCB6B"/>
<mask id="mask0_126_41" style="mask-type:alpha" maskUnits="userSpaceOnUse" x="3" y="2" width="10" height="11">
<circle cx="7.99891" cy="7.61592" r="4.99629" fill="white"/>
</mask>
<g mask="url(#mask0_126_41)">
<path fill-rule="evenodd" clip-rule="evenodd" d="M12.9561 12.4312C12.8435 12.3186 12.661 12.3186 12.5484 12.4312C12.4359 12.5437 12.4359 12.7262 12.5484 12.8388L15.1981 15.4885C15.3107 15.6011 15.4932 15.6011 15.6057 15.4885C15.7183 15.3759 15.7183 15.1934 15.6057 15.0808L12.9561 12.4312ZM6.16199 6.45239C6.04942 6.33982 5.86691 6.33982 5.75434 6.45239C5.64178 6.56496 5.64177 6.74746 5.75434 6.86003L5.90721 7.0129C6.01978 7.12547 6.01978 7.30797 5.90721 7.42054C5.79464 7.53311 5.61213 7.53311 5.49957 7.42054L1.13439 3.05536C1.02182 2.94279 1.02182 2.76029 1.13439 2.64772C1.24695 2.53515 1.42946 2.53515 1.54203 2.64772L4.93906 6.04475L4.93922 6.04457C5.0523 6.14875 5.22848 6.14598 5.33821 6.03625C5.44793 5.92653 5.4507 5.75035 5.34652 5.63727L5.3467 5.6371L4.93906 5.22946C4.82649 5.11689 4.82649 4.93438 4.93906 4.82182C5.05162 4.70925 5.23413 4.70925 5.3467 4.82182L7.99638 7.4715C8.10895 7.58406 8.10895 7.76657 7.99638 7.87914C7.88381 7.99171 7.7013 7.99171 7.58874 7.87914L6.16199 6.45239ZM9.21931 8.69443C9.10674 8.58186 8.92423 8.58186 8.81166 8.69443C8.6991 8.807 8.6991 8.9895 8.81166 9.10207L10.1365 10.4269L10.1363 10.4271C10.2405 10.5402 10.2377 10.7163 10.128 10.8261C10.0183 10.9358 9.84211 10.9386 9.72903 10.8344L9.72886 10.8346L7.01124 8.11693C6.89867 8.00437 6.71616 8.00437 6.6036 8.11693C6.49103 8.2295 6.49103 8.41201 6.6036 8.52458L10.9688 12.8898C11.0813 13.0023 11.2639 13.0023 11.3764 12.8898C11.489 12.7772 11.489 12.5947 11.3764 12.4821L10.5441 11.6498C10.4316 11.5373 10.4316 11.3548 10.5441 11.2422C10.6567 11.1296 10.8392 11.1296 10.9518 11.2422L11.4613 11.7518C11.5739 11.8643 11.7564 11.8643 11.869 11.7518C11.9816 11.6392 11.9816 11.4567 11.869 11.3441L9.21931 8.69443ZM6.19596 8.93221C6.08339 8.81964 5.90088 8.81964 5.78831 8.93221C5.67574 9.04478 5.67574 9.22728 5.78831 9.33985L7.02823 10.5798C7.1408 10.6923 7.3233 10.6923 7.43587 10.5798C7.54844 10.4672 7.54844 10.2847 7.43587 10.1721L6.19596 8.93221ZM11.0707 13.8069C10.9581 13.6944 10.7756 13.6944 10.663 13.8069C10.5505 13.9195 10.5505 14.102 10.663 14.2146L11.903 15.4545C12.0155 15.5671 12.198 15.5671 12.3106 15.4545C12.4232 15.3419 12.4232 15.1594 12.3106 15.0469L11.0707 13.8069ZM1.50806 4.65196C1.62062 4.5394 1.80313 4.5394 1.9157 4.65196L4.73523 7.4715C4.8478 7.58406 4.8478 7.76657 4.73523 7.87914C4.62267 7.99171 4.44016 7.99171 4.32759 7.87914L1.50806 5.05961C1.39549 4.94704 1.39549 4.76453 1.50806 4.65196ZM1.30423 1.18698C1.4168 1.07442 1.59931 1.07442 1.71188 1.18698L4.36156 3.83667C4.47413 3.94923 4.47413 4.13174 4.36156 4.24431C4.24899 4.35688 4.06648 4.35688 3.95392 4.24431L1.30423 1.59463C1.19167 1.48206 1.19167 1.29955 1.30423 1.18698Z" fill="#ECB55A"/>
</g>
<mask id="mask1_126_41" style="mask-type:alpha" maskUnits="userSpaceOnUse" x="3" y="2" width="10" height="11">
<circle cx="7.99891" cy="7.61592" r="4.99629" fill="white"/>
</mask>
<g mask="url(#mask1_126_41)">
<rect opacity="0.0775757" x="7.9989" y="2.61963" width="5.02245" height="9.99257" fill="black"/>
</g>
<path fill-rule="evenodd" clip-rule="evenodd" d="M6.74308 9.25685C10.4672 12.981 14.0451 15.441 14.7346 14.7515L14.7429 14.7429L13.6492 13.6492L13.6412 13.658C13.0635 14.2357 10.0657 12.1746 6.94554 9.0544C3.82534 5.93419 1.76422 2.93646 2.34191 2.35877L2.35055 2.35049L1.25726 1.25722L1.24844 1.2653C0.558935 1.9548 3.01897 5.53274 6.74308 9.25685ZM6.99611 8.98691C9.96508 11.9559 12.8176 13.9171 13.3673 13.3673L12.9553 12.9553L12.9473 12.9642C12.4395 13.472 9.80905 11.6649 7.07208 8.92792C4.33512 6.19096 2.52803 3.56055 3.03584 3.05274L3.0445 3.04449L2.6157 2.61573C2.06596 3.16547 4.02714 6.01794 6.99611 8.98691Z" fill="#B87D43"/>
</svg>
