<svg width="450" height="450" viewBox="0 0 450 450" fill="none" xmlns="http://www.w3.org/2000/svg">
<path d="M224.614 450C348.665 450 449.228 349.264 449.228 225C449.228 100.736 348.665 0 224.614 0C100.563 0 0 100.736 0 225C0 349.264 100.563 450 224.614 450Z" fill="#ECAD7A"/>
<mask id="mask0_94_32" style="mask-type:alpha" maskUnits="userSpaceOnUse" x="0" y="0" width="450" height="450">
<path d="M224.614 450C348.665 450 449.228 349.264 449.228 225C449.228 100.736 348.665 0 224.614 0C100.563 0 0 100.736 0 225C0 349.264 100.563 450 224.614 450Z" fill="white"/>
</mask>
<g mask="url(#mask0_94_32)">
<path fill-rule="evenodd" clip-rule="evenodd" d="M29.3311 227.32C34.4466 227.32 38.5935 231.474 38.5935 236.598C38.5935 241.722 34.4466 245.876 29.3311 245.876H-91.0806C-96.1961 245.876 -100.343 241.722 -100.343 236.598C-100.343 231.474 -96.1961 227.32 -91.0806 227.32H29.3311ZM199.142 227.32C204.258 227.32 208.405 231.474 208.405 236.598C208.405 241.722 204.258 245.876 199.142 245.876H138.937V245.884C134 246.087 130.06 250.16 130.06 255.155C130.06 260.15 134 264.223 138.937 264.425V264.433H262.436C267.551 264.433 271.698 268.587 271.698 273.711C271.698 278.836 267.551 282.99 262.436 282.99H64.0652C58.9497 282.99 54.8027 278.836 54.8027 273.711C54.8027 268.587 58.9497 264.433 64.0652 264.433H101.887C107.002 264.433 111.149 260.279 111.149 255.155C111.149 250.03 107.002 245.876 101.887 245.876H78.7307C73.6152 245.876 69.4683 241.722 69.4683 236.598C69.4683 231.474 73.6152 227.32 78.7307 227.32H199.142ZM40.9091 301.546C46.0246 301.546 50.1715 305.7 50.1715 310.825C50.1715 315.949 46.0246 320.103 40.9091 320.103H-15.4374C-20.5529 320.103 -24.6998 315.949 -24.6998 310.825C-24.6998 305.7 -20.5529 301.546 -15.4374 301.546H40.9091ZM262.436 301.546C267.551 301.546 271.698 305.7 271.698 310.825C271.698 315.949 267.551 320.103 262.436 320.103H206.089C200.974 320.103 196.827 315.949 196.827 310.825C196.827 305.7 200.974 301.546 206.089 301.546H262.436ZM466.209 310.825C466.209 305.7 462.062 301.546 456.947 301.546H328.816C323.701 301.546 319.554 305.7 319.554 310.825C319.554 315.949 323.701 320.103 328.816 320.103H456.947C462.062 320.103 466.209 315.949 466.209 310.825ZM319.554 245.876C324.67 245.876 328.816 250.03 328.816 255.155C328.816 260.279 324.67 264.433 319.554 264.433H312.607C307.492 264.433 303.345 268.587 303.345 273.711C303.345 278.836 307.492 282.99 312.607 282.99H510.978C516.093 282.99 520.24 278.836 520.24 273.711C520.24 268.587 516.093 264.433 510.978 264.433H356.604V264.425C351.667 264.223 347.727 260.15 347.727 255.155C347.727 250.16 351.667 246.087 356.604 245.884V245.876H375.129C380.244 245.876 384.391 241.722 384.391 236.598C384.391 231.474 380.244 227.32 375.129 227.32H254.717C249.602 227.32 245.455 231.474 245.455 236.598C245.455 241.722 249.602 245.876 254.717 245.876H319.554ZM549.571 236.598C549.571 231.474 545.424 227.32 540.309 227.32H419.897C414.782 227.32 410.635 231.474 410.635 236.598C410.635 241.722 414.782 245.876 419.897 245.876H540.309C545.424 245.876 549.571 241.722 549.571 236.598Z" fill="#F0D29F"/>
</g>
<mask id="mask1_94_32" style="mask-type:alpha" maskUnits="userSpaceOnUse" x="0" y="0" width="450" height="450">
<path d="M224.614 450C348.665 450 449.228 349.264 449.228 225C449.228 100.736 348.665 0 224.614 0C100.563 0 0 100.736 0 225C0 349.264 100.563 450 224.614 450Z" fill="white"/>
</mask>
<g mask="url(#mask1_94_32)">
<path d="M122.727 310.825C122.727 305.701 118.58 301.546 113.465 301.546H91.0806C85.965 301.546 81.8181 297.392 81.8181 292.268C81.8181 287.144 85.965 282.99 91.0806 282.99H169.039C174.155 282.99 178.302 287.144 178.302 292.268C178.302 297.392 174.155 301.546 169.039 301.546H166.724L166.723 301.554C161.787 301.758 157.847 305.83 157.847 310.825C157.847 315.819 161.787 319.892 166.723 320.095L166.724 320.103H169.039C174.155 320.103 178.302 324.257 178.302 329.382C178.302 334.506 174.155 338.66 169.039 338.66H110.377C105.262 338.66 101.115 334.506 101.115 329.382C101.115 324.257 105.262 320.103 110.377 320.103H113.465C118.58 320.103 122.727 315.949 122.727 310.825Z" fill="#D86534"/>
</g>
<mask id="mask2_94_32" style="mask-type:alpha" maskUnits="userSpaceOnUse" x="0" y="0" width="450" height="450">
<path d="M224.614 450C348.665 450 449.228 349.264 449.228 225C449.228 100.736 348.665 0 224.614 0C100.563 0 0 100.736 0 225C0 349.264 100.563 450 224.614 450Z" fill="white"/>
</mask>
<g mask="url(#mask2_94_32)">
<path fill-rule="evenodd" clip-rule="evenodd" d="M359.691 41.7526C354.576 41.7526 350.429 45.9066 350.429 51.0309C350.429 56.1552 354.576 60.3093 359.691 60.3093H480.103C485.218 60.3093 489.365 56.1552 489.365 51.0309C489.365 45.9066 485.218 41.7526 480.103 41.7526H359.691ZM189.88 41.7526C184.764 41.7526 180.617 45.9066 180.617 51.0309C180.617 56.1552 184.764 60.3093 189.88 60.3093H250.086L250.085 60.3172C255.022 60.5197 258.962 64.5927 258.962 69.5876C258.962 74.5825 255.022 78.6555 250.085 78.8581L250.086 78.866H126.587C121.471 78.866 117.324 83.02 117.324 88.1443C117.324 93.2686 121.471 97.4227 126.587 97.4227H324.957C330.073 97.4227 334.22 93.2686 334.22 88.1443C334.22 83.02 330.073 78.866 324.957 78.866H287.136C282.02 78.866 277.873 74.7119 277.873 69.5876C277.873 64.4633 282.02 60.3093 287.136 60.3093H310.292C315.407 60.3093 319.554 56.1552 319.554 51.0309C319.554 45.9066 315.407 41.7526 310.292 41.7526H189.88ZM348.113 115.979C342.998 115.979 338.851 120.133 338.851 125.258C338.851 130.382 342.998 134.536 348.113 134.536H404.46C409.575 134.536 413.722 130.382 413.722 125.258C413.722 120.133 409.575 115.979 404.46 115.979H348.113ZM126.587 115.979C121.471 115.979 117.324 120.133 117.324 125.258C117.324 130.382 121.471 134.536 126.587 134.536H182.933C188.049 134.536 192.196 130.382 192.196 125.258C192.196 120.133 188.049 115.979 182.933 115.979H126.587ZM-77.1871 125.258C-77.1871 120.133 -73.0401 115.979 -67.9246 115.979H60.2057C65.3212 115.979 69.4682 120.133 69.4682 125.258C69.4682 130.382 65.3212 134.536 60.2057 134.536H-67.9246C-73.0401 134.536 -77.1871 130.382 -77.1871 125.258ZM69.4682 60.3093C64.3527 60.3093 60.2057 64.4633 60.2057 69.5876C60.2057 74.7119 64.3527 78.866 69.4682 78.866H76.415C81.5305 78.866 85.6774 83.02 85.6774 88.1443C85.6774 93.2686 81.5305 97.4227 76.415 97.4227H-121.955C-127.071 97.4227 -131.218 93.2686 -131.218 88.1443C-131.218 83.02 -127.071 78.866 -121.955 78.866H32.4184L32.4181 78.8581C37.3548 78.6555 41.2949 74.5825 41.2949 69.5876C41.2949 64.5927 37.3548 60.5197 32.4181 60.3172L32.4184 60.3093H13.8935C8.77809 60.3093 4.63115 56.1552 4.63115 51.0309C4.63115 45.9066 8.77809 41.7526 13.8935 41.7526H134.305C139.421 41.7526 143.568 45.9066 143.568 51.0309C143.568 56.1552 139.421 60.3093 134.305 60.3093H69.4682ZM-160.549 51.0309C-160.549 45.9066 -156.402 41.7526 -151.286 41.7526H-30.8749C-25.7594 41.7526 -21.6124 45.9066 -21.6124 51.0309C-21.6124 56.1552 -25.7594 60.3093 -30.8749 60.3093H-151.286C-156.402 60.3093 -160.549 56.1552 -160.549 51.0309Z" fill="#DC8E61"/>
</g>
<mask id="mask3_94_32" style="mask-type:alpha" maskUnits="userSpaceOnUse" x="0" y="0" width="450" height="450">
<path d="M224.614 450C348.665 450 449.228 349.264 449.228 225C449.228 100.736 348.665 0 224.614 0C100.563 0 0 100.736 0 225C0 349.264 100.563 450 224.614 450Z" fill="white"/>
</mask>
<g mask="url(#mask3_94_32)">
<path fill-rule="evenodd" clip-rule="evenodd" d="M481.647 338.66C476.531 338.66 472.384 342.814 472.384 347.938C472.384 353.062 476.531 357.216 481.647 357.216H602.058C607.174 357.216 611.321 353.062 611.321 347.938C611.321 342.814 607.174 338.66 602.058 338.66H481.647ZM311.835 338.66C306.72 338.66 302.573 342.814 302.573 347.938C302.573 353.062 306.72 357.216 311.835 357.216H372.041V357.224C376.978 357.427 380.918 361.5 380.918 366.495C380.918 371.49 376.978 375.563 372.041 375.765V375.773H248.542C243.427 375.773 239.28 379.927 239.28 385.052C239.28 390.176 243.427 394.33 248.542 394.33H446.913C452.028 394.33 456.175 390.176 456.175 385.052C456.175 379.927 452.028 375.773 446.913 375.773H409.091C403.975 375.773 399.828 371.619 399.828 366.495C399.828 361.371 403.975 357.216 409.091 357.216H432.247C437.363 357.216 441.509 353.062 441.509 347.938C441.509 342.814 437.363 338.66 432.247 338.66H311.835ZM470.069 412.887C464.953 412.887 460.806 417.041 460.806 422.165C460.806 427.289 464.953 431.443 470.069 431.443H526.415C531.531 431.443 535.677 427.289 535.677 422.165C535.677 417.041 531.531 412.887 526.415 412.887H470.069ZM248.542 412.887C243.426 412.887 239.28 417.041 239.28 422.165C239.28 427.289 243.426 431.443 248.542 431.443H304.888C310.004 431.443 314.151 427.289 314.151 422.165C314.151 417.041 310.004 412.887 304.888 412.887H248.542ZM44.7684 422.165C44.7684 417.041 48.9153 412.887 54.0308 412.887H182.161C187.277 412.887 191.424 417.041 191.424 422.165C191.424 427.289 187.277 431.443 182.161 431.443H54.0308C48.9153 431.443 44.7684 427.289 44.7684 422.165ZM191.424 357.216C186.308 357.216 182.161 361.371 182.161 366.495C182.161 371.619 186.308 375.773 191.424 375.773H198.371C203.486 375.773 207.633 379.927 207.633 385.052C207.633 390.176 203.486 394.33 198.371 394.33H-3.02869e-06C-5.11548 394.33 -9.26239 390.176 -9.26239 385.052C-9.26239 379.927 -5.11548 375.773 -3.02869e-06 375.773H154.374V375.765C159.31 375.563 163.25 371.49 163.25 366.495C163.25 361.5 159.31 357.427 154.374 357.224V357.216H135.849C130.734 357.216 126.587 353.062 126.587 347.938C126.587 342.814 130.734 338.66 135.849 338.66H256.261C261.376 338.66 265.523 342.814 265.523 347.938C265.523 353.062 261.376 357.216 256.261 357.216H191.424ZM-38.5935 347.938C-38.5935 342.814 -34.4465 338.66 -29.3311 338.66H91.0806C96.1961 338.66 100.343 342.814 100.343 347.938C100.343 353.062 96.1961 357.216 91.0806 357.216H-29.3311C-34.4465 357.216 -38.5935 353.062 -38.5935 347.938Z" fill="#D89D6D"/>
</g>
<mask id="mask4_94_32" style="mask-type:alpha" maskUnits="userSpaceOnUse" x="0" y="0" width="450" height="450">
<path d="M224.614 450C348.665 450 449.228 349.264 449.228 225C449.228 100.736 348.665 0 224.614 0C100.563 0 0 100.736 0 225C0 349.264 100.563 450 224.614 450Z" fill="white"/>
</mask>
<g mask="url(#mask4_94_32)">
<path fill-rule="evenodd" clip-rule="evenodd" d="M136.621 171.649C141.736 171.649 145.883 175.804 145.883 180.928C145.883 186.052 141.736 190.206 136.621 190.206H128.902C123.787 190.206 119.64 194.36 119.64 199.485C119.64 204.609 123.787 208.763 128.902 208.763H197.599C202.714 208.763 206.861 204.609 206.861 199.485C206.861 194.36 202.714 190.206 197.599 190.206H189.88L189.879 190.198C184.943 189.995 181.004 185.922 181.004 180.928C181.004 175.933 184.943 171.861 189.879 171.657L189.88 171.649H240.051C245.167 171.649 249.314 167.495 249.314 162.371C249.314 157.247 245.167 153.093 240.051 153.093H86.4494C81.3339 153.093 77.187 157.247 77.187 162.371C77.187 167.495 81.3339 171.649 86.4494 171.649H136.621ZM101.115 199.485C101.115 194.36 96.968 190.206 91.8525 190.206H43.9966C38.8811 190.206 34.7341 194.36 34.7341 199.485C34.7341 204.609 38.8811 208.763 43.9966 208.763H91.8525C96.968 208.763 101.115 204.609 101.115 199.485ZM6.94683 190.206C12.0623 190.206 16.2092 194.36 16.2092 199.485C16.2092 204.609 12.0623 208.763 6.94683 208.763H-14.6655C-19.781 208.763 -23.928 204.609 -23.928 199.485C-23.928 194.36 -19.781 190.206 -14.6655 190.206H6.94683ZM373.585 199.485C373.585 194.36 369.438 190.206 364.323 190.206H234.648C229.533 190.206 225.386 194.36 225.386 199.485C225.386 204.609 229.533 208.763 234.648 208.763H364.323C369.438 208.763 373.585 204.609 373.585 199.485ZM422.985 190.206C428.1 190.206 432.247 194.36 432.247 199.485C432.247 204.609 428.1 208.763 422.985 208.763H401.372C396.257 208.763 392.11 204.609 392.11 199.485C392.11 194.36 396.257 190.206 401.372 190.206H422.985ZM395.969 162.371C395.969 157.247 391.822 153.093 386.707 153.093H277.101C271.986 153.093 267.839 157.247 267.839 162.371C267.839 167.495 271.986 171.649 277.101 171.649H386.707C391.822 171.649 395.969 167.495 395.969 162.371ZM462.35 153.093C467.465 153.093 471.612 157.247 471.612 162.371C471.612 167.495 467.465 171.649 462.35 171.649H423.756C418.641 171.649 414.494 167.495 414.494 162.371C414.494 157.247 418.641 153.093 423.756 153.093H462.35ZM40.1372 162.371C40.1372 157.247 35.9903 153.093 30.8748 153.093H9.26246C4.14695 153.093 2.09808e-05 157.247 2.09808e-05 162.371C2.09808e-05 167.495 4.14695 171.649 9.26246 171.649H30.8748C35.9903 171.649 40.1372 167.495 40.1372 162.371Z" fill="#D89D6D"/>
<path opacity="0.0775757" d="M450 0H224.614V450H450V0Z" fill="black"/>
<path fill-rule="evenodd" clip-rule="evenodd" d="M224.614 446.134C346.486 446.134 445.291 347.207 445.369 225.144V224.856C445.291 102.793 346.486 3.86597 224.614 3.86597V446.134Z" fill="#A15C3E"/>
</g>
<mask id="mask5_94_32" style="mask-type:alpha" maskUnits="userSpaceOnUse" x="224" y="3" width="222" height="444">
<path fill-rule="evenodd" clip-rule="evenodd" d="M224.614 446.134C346.486 446.134 445.291 347.207 445.369 225.144V224.856C445.291 102.793 346.486 3.86597 224.614 3.86597V446.134Z" fill="white"/>
</mask>
<g mask="url(#mask5_94_32)">
<path d="M225 433.763C339.886 433.763 433.019 340.47 433.019 225.387C433.019 110.304 339.886 17.011 225 17.011C110.114 17.011 16.981 110.304 16.981 225.387C16.981 340.47 110.114 433.763 225 433.763Z" fill="#F0D29F"/>
<path d="M225.772 389.691C316.359 389.691 389.794 316.13 389.794 225.387C389.794 134.644 316.359 61.083 225.772 61.083C135.185 61.083 61.75 134.644 61.75 225.387C61.75 316.13 135.185 389.691 225.772 389.691Z" fill="#E2BE81"/>
<path d="M225.772 370.361C305.702 370.361 370.498 305.454 370.498 225.387C370.498 145.32 305.702 80.413 225.772 80.413C145.842 80.413 81.0459 145.32 81.0459 225.387C81.0459 305.454 145.842 370.361 225.772 370.361Z" fill="#D27140"/>
<path d="M224.614 257.474C242.518 257.474 257.033 242.935 257.033 225C257.033 207.065 242.518 192.526 224.614 192.526C206.71 192.526 192.196 207.065 192.196 225C192.196 242.935 206.71 257.474 224.614 257.474Z" fill="#565658"/>
</g>
</svg>
