<svg width="450" height="450" viewBox="0 0 450 450" fill="none" xmlns="http://www.w3.org/2000/svg">
<path fill-rule="evenodd" clip-rule="evenodd" d="M35.3548 35.3542C35.431 35.2724 35.5086 35.1919 35.5877 35.1128C54.9799 15.7206 155.609 84.9092 260.35 189.65C365.091 294.39 434.279 395.02 414.887 414.412C414.808 414.491 414.727 414.569 414.646 414.645L383.891 383.89C383.973 383.815 384.054 383.737 384.133 383.658C400.381 367.411 342.412 283.099 254.656 195.344C166.901 107.588 82.5895 49.6193 66.342 65.8668C66.2628 65.946 66.1854 66.0268 66.1098 66.1092L35.3548 35.3542ZM73.5672 73.5666C73.5672 73.5666 73.5672 73.5666 73.5672 73.5666C89.0286 58.1052 169.254 113.263 252.757 196.766C336.259 280.268 391.417 360.494 375.956 375.955C375.956 375.955 375.956 375.955 375.956 375.955L364.374 364.373C364.457 364.298 364.538 364.221 364.617 364.142C378.899 349.86 328.075 275.88 251.097 198.902C174.12 121.925 100.14 71.1009 85.858 85.383C85.7789 85.4622 85.7017 85.5431 85.6266 85.6259L73.5672 73.5666Z" fill="#B87D43"/>
<circle cx="225" cy="214.191" r="140.521" fill="#FCCB6B"/>
<mask id="mask0_92_13" style="mask-type:alpha" maskUnits="userSpaceOnUse" x="84" y="73" width="282" height="282">
<circle cx="225" cy="214.191" r="140.521" fill="white"/>
</mask>
<g mask="url(#mask0_92_13)">
<path fill-rule="evenodd" clip-rule="evenodd" d="M364.419 349.626C361.253 346.46 356.12 346.46 352.954 349.626C349.788 352.792 349.788 357.925 352.954 361.091L427.476 435.613C430.642 438.779 435.775 438.779 438.941 435.613C442.107 432.447 442.107 427.314 438.941 424.148L364.419 349.626ZM259.323 244.53C256.157 241.364 251.024 241.364 247.858 244.53C244.692 247.696 244.692 252.829 247.858 255.995L285.12 293.257L285.114 293.261C288.045 296.442 287.967 301.397 284.881 304.483C281.795 307.569 276.84 307.647 273.659 304.716L273.655 304.722L197.221 228.288C194.055 225.122 188.922 225.122 185.756 228.288C182.591 231.454 182.591 236.587 185.756 239.753L308.527 362.524C311.693 365.69 316.826 365.69 319.992 362.524C323.158 359.358 323.158 354.225 319.992 351.059L296.584 327.651C293.419 324.485 293.419 319.352 296.584 316.186C299.75 313.021 304.883 313.021 308.049 316.186L322.381 330.518C325.547 333.684 330.68 333.684 333.846 330.518C337.012 327.352 337.012 322.219 333.846 319.053L259.323 244.53ZM311.393 388.32C308.227 385.154 303.094 385.154 299.928 388.32C296.763 391.486 296.763 396.619 299.928 399.785L334.801 434.658C337.967 437.824 343.1 437.824 346.266 434.658C349.432 431.492 349.432 426.359 346.266 423.193L311.393 388.32ZM174.291 251.218C171.125 248.052 165.992 248.052 162.826 251.218C159.66 254.384 159.66 259.517 162.826 262.683L197.699 297.556C200.865 300.722 205.998 300.722 209.164 297.556C212.33 294.39 212.33 289.257 209.164 286.091L174.291 251.218ZM42.4444 130.836C45.6103 127.67 50.7434 127.67 53.9093 130.836L133.209 210.136C136.375 213.301 136.375 218.435 133.209 221.6C130.043 224.766 124.91 224.766 121.744 221.6L42.4443 142.301C39.2784 139.135 39.2784 134.002 42.4444 130.836ZM173.336 181.473C170.17 178.307 165.037 178.307 161.871 181.473C158.705 184.639 158.705 189.772 161.871 192.938L166.17 197.237C169.336 200.403 169.336 205.536 166.17 208.702C163.004 211.868 157.871 211.868 154.705 208.702L31.9348 85.9317C28.7688 82.7657 28.7688 77.6327 31.9348 74.4667C35.1007 71.3008 40.2338 71.3008 43.3998 74.4667L138.941 170.008L138.946 170.003C142.126 172.933 147.081 172.855 150.167 169.769C153.253 166.683 153.331 161.728 150.401 158.548L150.406 158.543L138.941 147.078C135.775 143.912 135.775 138.779 138.941 135.613C142.107 132.447 147.24 132.447 150.406 135.613L224.928 210.136C228.094 213.301 228.094 218.435 224.928 221.6C221.762 224.766 216.629 224.766 213.463 221.6L173.336 181.473ZM36.7119 33.3839C39.8779 30.2179 45.0109 30.2179 48.1769 33.3839L122.699 107.906C125.865 111.072 125.865 116.205 122.699 119.371C119.533 122.537 114.4 122.537 111.234 119.371L36.7119 44.8488C33.5459 41.6829 33.5459 36.5499 36.7119 33.3839Z" fill="#ECB55A"/>
</g>
<mask id="mask1_92_13" style="mask-type:alpha" maskUnits="userSpaceOnUse" x="84" y="73" width="282" height="282">
<circle cx="225" cy="214.191" r="140.521" fill="white"/>
</mask>
<g mask="url(#mask1_92_13)">
<rect opacity="0.0775757" x="225" y="73.6708" width="141.256" height="281.041" fill="black"/>
</g>
<path fill-rule="evenodd" clip-rule="evenodd" d="M225 350.658C300.331 350.658 361.406 289.621 361.467 214.304V214.078C361.406 138.762 300.331 77.7242 225 77.7242C225 77.7242 225 77.7242 225 77.7242L225 350.658Z" fill="#9C4925"/>
<mask id="mask2_92_13" style="mask-type:alpha" maskUnits="userSpaceOnUse" x="225" y="77" width="137" height="274">
<path fill-rule="evenodd" clip-rule="evenodd" d="M225 350.658C300.331 350.658 361.406 289.621 361.467 214.304V214.078C361.406 138.762 300.331 77.7242 225 77.7242C225 77.7242 225 77.7242 225 77.7242L225 350.658Z" fill="white"/>
</mask>
<g mask="url(#mask2_92_13)">
<circle cx="225.676" cy="214.191" r="77.0161" fill="#E09B7F"/>
<circle cx="225.338" cy="214.529" r="23.3075" fill="#FFEECC"/>
</g>
<path fill-rule="evenodd" clip-rule="evenodd" d="M35.3541 35.3549C35.2723 35.4311 35.1918 35.5088 35.1127 35.5879C15.7205 54.9801 84.9091 155.61 189.65 260.35C294.39 365.091 395.02 434.279 414.412 414.887C414.491 414.808 414.569 414.728 414.645 414.646L383.89 383.891C383.815 383.973 383.737 384.054 383.658 384.133C367.411 400.381 283.099 342.412 195.344 254.656C107.588 166.901 49.6192 82.5894 65.8667 66.3419C65.9458 66.2627 66.0266 66.1854 66.1089 66.1098L35.3541 35.3549ZM73.5664 73.5673C58.1054 89.0289 113.263 169.255 196.766 252.757C280.268 336.259 360.493 391.417 375.955 375.956L364.373 364.374C364.298 364.457 364.221 364.538 364.142 364.617C349.86 378.899 275.88 328.075 198.902 251.097C121.925 174.12 71.1009 100.14 85.383 85.8581C85.4621 85.7789 85.543 85.7018 85.6258 85.6267L73.5664 73.5673Z" fill="#B87D43"/>
</svg>
