<svg width="451" height="451" viewBox="0 0 451 451" fill="none" xmlns="http://www.w3.org/2000/svg">
<path fill-rule="evenodd" clip-rule="evenodd" d="M36.3075 36.306C36.3836 36.2242 36.4613 36.1437 36.5404 36.0646C55.9326 16.6724 156.562 85.861 261.303 190.602C366.043 295.342 435.232 395.972 415.84 415.364C415.761 415.443 415.68 415.521 415.598 415.597L384.844 384.842C384.926 384.767 385.007 384.689 385.086 384.61C401.333 368.363 343.364 284.051 255.609 196.296C167.853 108.54 83.5419 50.5711 67.2944 66.8186C67.2153 66.8977 67.1379 66.9785 67.0623 67.0608L36.3075 36.306ZM74.5197 74.5183C89.9814 59.0574 170.207 114.215 253.709 197.718C337.211 281.22 392.369 361.445 376.908 376.907L365.327 365.325C365.409 365.25 365.49 365.173 365.57 365.094C379.852 350.812 329.027 276.832 252.05 199.854C175.073 122.877 101.093 72.0527 86.8106 86.3348C86.7315 86.414 86.6544 86.495 86.5792 86.5777L74.5197 74.5183Z" fill="#B87D43"/>
<ellipse cx="225.953" cy="215.143" rx="140.521" ry="140.521" fill="#FCCB6B"/>
<mask id="mask0_92_12" style="mask-type:alpha" maskUnits="userSpaceOnUse" x="85" y="74" width="282" height="282">
<ellipse cx="225.953" cy="215.143" rx="140.521" ry="140.521" fill="white"/>
</mask>
<g mask="url(#mask0_92_12)">
<path fill-rule="evenodd" clip-rule="evenodd" d="M37.6644 34.3359C40.8303 31.1699 45.9634 31.1699 49.1293 34.3359L123.652 108.858C126.818 112.024 126.818 117.157 123.652 120.323C120.486 123.489 115.353 123.489 112.187 120.323L37.6644 45.8008C34.4984 42.6349 34.4984 37.5018 37.6644 34.3359ZM260.276 245.482C257.11 242.316 251.977 242.316 248.811 245.482C245.645 248.648 245.645 253.781 248.811 256.947L286.072 294.209L286.067 294.213C288.997 297.394 288.919 302.349 285.833 305.435C282.747 308.521 277.792 308.599 274.612 305.668L274.607 305.674L198.174 229.24C195.008 226.074 189.875 226.074 186.709 229.24C183.543 232.406 183.543 237.539 186.709 240.705L309.48 363.476C312.646 366.642 317.779 366.642 320.945 363.476C324.111 360.31 324.111 355.177 320.945 352.011L297.537 328.603C294.371 325.438 294.371 320.304 297.537 317.139C300.703 313.973 305.836 313.973 309.002 317.139L323.333 331.47C326.499 334.636 331.632 334.636 334.798 331.47C337.964 328.304 337.964 323.171 334.798 320.005L260.276 245.482ZM43.3968 131.788C46.5628 128.622 51.6958 128.622 54.8618 131.788L134.161 211.088C137.327 214.253 137.327 219.387 134.161 222.552C130.995 225.718 125.862 225.718 122.696 222.552L43.3968 143.253C40.2309 140.087 40.2309 134.954 43.3968 131.788ZM175.244 252.17C172.078 249.004 166.945 249.004 163.779 252.17C160.613 255.336 160.613 260.469 163.779 263.635L198.652 298.508C201.817 301.674 206.951 301.674 210.116 298.508C213.282 295.342 213.282 290.209 210.116 287.043L175.244 252.17ZM312.346 389.272C309.18 386.106 304.047 386.106 300.881 389.272C297.715 392.438 297.715 397.571 300.881 400.737L335.753 435.61C338.919 438.776 344.052 438.776 347.218 435.61C350.384 432.444 350.384 427.311 347.218 424.145L312.346 389.272ZM174.288 182.425C171.122 179.259 165.989 179.259 162.823 182.425C159.657 185.591 159.657 190.724 162.823 193.89L167.123 198.189C170.289 201.355 170.289 206.488 167.123 209.654C163.957 212.82 158.824 212.82 155.658 209.654L32.887 86.8836C29.721 83.7177 29.721 78.5847 32.887 75.4187C36.053 72.2527 41.186 72.2527 44.352 75.4187L139.893 170.96L139.898 170.955C143.078 173.885 148.033 173.807 151.119 170.721C154.205 167.635 154.283 162.68 151.353 159.5L151.358 159.495L139.893 148.03C136.727 144.864 136.727 139.731 139.893 136.565C143.059 133.399 148.192 133.399 151.358 136.565L225.881 211.088C229.047 214.253 229.047 219.387 225.881 222.553C222.715 225.718 217.582 225.718 214.416 222.553L174.288 182.425ZM365.371 350.578C362.205 347.412 357.072 347.412 353.906 350.578C350.74 353.744 350.74 358.877 353.906 362.043L428.428 436.565C431.594 439.731 436.727 439.731 439.893 436.565C443.059 433.399 443.059 428.266 439.893 425.1L365.371 350.578Z" fill="#ECB55A"/>
</g>
<mask id="mask1_92_12" style="mask-type:alpha" maskUnits="userSpaceOnUse" x="85" y="74" width="282" height="282">
<ellipse cx="225.953" cy="215.143" rx="140.521" ry="140.521" fill="white"/>
</mask>
<g mask="url(#mask1_92_12)">
<rect opacity="0.0775757" x="225.953" y="74.6226" width="141.256" height="281.041" fill="black"/>
</g>
<path fill-rule="evenodd" clip-rule="evenodd" d="M36.3067 36.3068C36.2249 36.383 36.1445 36.4606 36.0653 36.5398C16.6732 55.932 85.8617 156.562 190.602 261.302C295.343 366.043 395.973 435.231 415.365 415.839C415.444 415.76 415.521 415.68 415.598 415.598L384.843 384.843C384.767 384.925 384.69 385.006 384.611 385.085C368.363 401.333 284.052 343.364 196.296 255.608C108.541 167.853 50.5719 83.5413 66.8194 67.2938C66.8985 67.2147 66.9792 67.1373 67.0616 67.0617L36.3067 36.3068ZM74.5191 74.5192C59.0582 89.9809 114.216 170.207 197.718 253.709C281.22 337.211 361.446 392.369 376.908 376.908L365.326 365.326C365.251 365.409 365.173 365.49 365.094 365.569C350.812 379.851 276.832 329.027 199.855 252.05C122.878 175.072 72.0533 101.092 86.3354 86.81C86.4145 86.7308 86.4955 86.6537 86.5784 86.5785L74.5191 74.5192Z" fill="#B87D43"/>
</svg>
